<?xml version="1.0" encoding="UTF-8" standalone="no"?>
<!DOCTYPE svg PUBLIC "-//W3C//DTD SVG 1.1//EN" "http://www.w3.org/Graphics/SVG/1.1/DTD/svg11.dtd">
<svg xmlns="http://www.w3.org/2000/svg" version="1.1" viewBox="0.00 0.00 535.00 310.00">
<g stroke-width="2.00" fill="none" stroke-linecap="butt">
<path stroke="#e20000" vector-effect="non-scaling-stroke" d="
  M 161.50 47.39
  Q 160.02 48.74 159.95 50.02
  Q 159.63 56.04 159.98 76.42
  Q 159.98 76.84 160.37 77.00
  L 161.16 77.32
  A 0.12 0.11 43.0 0 1 161.17 77.53
  Q 160.47 77.87 160.68 78.22"
/>
<path stroke="#be0000" vector-effect="non-scaling-stroke" d="
  M 160.68 78.22
  L 148.79 62.90
  A 0.67 0.66 44.8 0 0 147.74 62.90
  Q 109.19 112.89 70.54 162.53
  C 66.87 167.24 63.91 169.66 58.00 168.17
  Q 55.98 167.66 52.34 162.17"
/>
<path stroke="#780000" vector-effect="non-scaling-stroke" d="
  M 184.55 77.06
  Q 187.38 81.59 191.15 86.35
  Q 202.60 100.79 214.35 115.83"
/>
<path stroke="#850000" vector-effect="non-scaling-stroke" d="
  M 239.99 148.75
  C 237.87 149.41 235.68 148.90 233.58 149.64
  Q 231.16 150.50 229.40 151.36"
/>
<path stroke="#cc0000" vector-effect="non-scaling-stroke" d="
  M 229.40 151.36
  Q 224.82 151.86 221.63 154.75
  A 1.27 1.26 50.1 0 1 219.78 154.58
  L 160.68 78.22"
/>
<path stroke="#610000" vector-effect="non-scaling-stroke" d="
  M 229.40 151.36
  Q 219.58 155.28 216.96 161.38"
/>
<path stroke="#be0000" vector-effect="non-scaling-stroke" d="
  M 216.96 161.38
  Q 217.19 160.33 215.87 159.40
  Q 215.47 159.11 215.16 158.72
  L 212.13 154.99"
/>
<path stroke="#c75f1d" vector-effect="non-scaling-stroke" d="
  M 212.13 154.99
  L 192.00 129.01"
/>
<path stroke="#be0000" vector-effect="non-scaling-stroke" d="
  M 192.00 129.01
  L 176.84 109.67"
/>
<path stroke="#be0000" vector-effect="non-scaling-stroke" d="
  M 176.21 109.13
  Q 174.54 105.61 171.73 103.22"
/>
<path stroke="#be0000" vector-effect="non-scaling-stroke" d="
  M 129.20 97.65
  Q 122.54 104.88 117.12 113.25"
/>
<path stroke="#be0000" vector-effect="non-scaling-stroke" d="
  M 116.17 114.48
  Q 113.83 116.34 112.49 119.23"
/>
<path stroke="#be0000" vector-effect="non-scaling-stroke" d="
  M 105.64 128.21
  L 103.23 130.97"
/>
<path stroke="#be0000" vector-effect="non-scaling-stroke" d="
  M 85.87 153.42
  L 79.18 162.11"
/>
<path stroke="#0e0000" stroke-opacity="0.949" vector-effect="non-scaling-stroke" d="
  M 241.05 149.18
  Q 244.48 154.27 243.86 160.38"
/>
<path stroke="#850000" vector-effect="non-scaling-stroke" d="
  M 243.86 160.38
  Q 239.98 159.04 237.03 161.76
  Q 236.66 162.10 236.55 162.59
  Q 235.79 166.04 236.59 169.51
  A 0.71 0.71 0.0 0 1 236.02 170.38
  L 224.68 172.26"
/>
<path stroke="#805f1d" vector-effect="non-scaling-stroke" d="
  M 223.86 172.31
  L 222.22 170.70
  Q 221.81 170.29 221.67 170.85
  L 221.48 171.65"
/>
<path stroke="#770000" vector-effect="non-scaling-stroke" d="
  M 216.88 162.13
  Q 217.10 161.73 216.96 161.38"
/>
<path stroke="#6a0000" vector-effect="non-scaling-stroke" d="
  M 192.00 129.01
  L 186.10 122.88"
/>
<path stroke="#dd5f1d" vector-effect="non-scaling-stroke" d="
  M 212.13 154.99
  Q 212.68 155.75 212.48 156.02"
/>
<path stroke="#735f1d" vector-effect="non-scaling-stroke" d="
  M 192.00 129.01
  Q 198.40 139.23 202.75 144.04
  Q 206.55 148.24 208.16 150.93"
/>
<path stroke="#735f1d" vector-effect="non-scaling-stroke" d="
  M 190.48 206.72
  L 163.91 207.45
  A 2.20 2.20 0.0 0 1 161.72 204.68
  L 163.01 199.85"
/>
<path stroke="#850000" vector-effect="non-scaling-stroke" d="
  M 243.17 170.28
  Q 239.69 170.97 236.52 172.04
  Q 235.32 172.45 231.85 173.12
  Q 229.39 173.59 227.32 174.99"
/>
<path stroke="#7e0000" stroke-opacity="0.949" vector-effect="non-scaling-stroke" d="
  M 227.33 175.51
  Q 227.32 175.25 227.32 174.99"
/>
<path stroke="#0e0000" stroke-opacity="0.949" vector-effect="non-scaling-stroke" d="
  M 227.32 174.99
  Q 230.07 179.00 234.56 178.77
  C 238.28 178.58 240.62 175.50 242.16 172.39
  Q 242.24 172.24 242.40 171.54
  Q 242.56 170.81 243.43 171.17"
/>
<path stroke="#735f1d" vector-effect="non-scaling-stroke" d="
  M 214.61 55.97
  L 184.70 55.91"
/>
<path stroke="#c39029" vector-effect="non-scaling-stroke" d="
  M 140.76 187.17
  Q 140.65 187.90 141.12 189.51
  Q 144.79 201.94 138.29 213.25
  Q 137.99 213.77 138.57 213.93
  L 140.24 214.39"
/>
<path stroke="#c39029" vector-effect="non-scaling-stroke" d="
  M 136.94 218.76
  Q 136.05 218.14 135.01 217.97
  Q 134.52 217.90 134.14 218.21
  Q 130.62 221.11 126.31 222.58
  A 0.94 0.93 -3.0 0 0 125.71 223.24
  L 124.06 229.91
  A 1.16 1.16 0.0 0 1 122.57 230.73
  L 120.04 229.88
  A 0.56 0.56 0.0 0 0 119.33 230.27
  L 118.49 233.56
  A 1.12 1.10 83.2 0 1 117.95 234.26
  C 115.28 235.74 112.09 236.77 110.70 239.60
  Q 107.98 245.10 109.86 251.23
  A 2.32 2.30 59.6 0 1 109.27 253.54
  Q 103.99 258.70 104.88 266.29
  A 1.37 1.35 61.9 0 1 104.57 267.33
  Q 102.86 269.32 100.25 269.99
  A 1.11 1.10 -83.1 0 0 99.54 270.55
  Q 96.88 275.57 96.73 281.25
  A 0.87 0.85 -16.7 0 1 96.35 281.94
  L 92.06 284.78"
/>
<path stroke="#c39029" vector-effect="non-scaling-stroke" d="
  M 103.35 228.84
  Q 105.78 228.52 106.89 225.53
  A 0.42 0.42 0.0 0 1 107.59 225.38
  L 110.09 227.95
  A 0.72 0.71 40.1 0 0 111.19 227.86
  L 115.12 222.12
  A 0.97 0.96 21.9 0 1 116.09 221.71
  Q 125.37 223.25 131.98 216.94
  Q 132.37 216.58 131.96 216.24
  L 131.02 215.49
  Q 130.54 215.10 130.06 215.49
  Q 123.59 220.81 115.16 219.40
  A 0.92 0.91 22.0 0 0 114.25 219.78
  L 110.12 225.79
  A 0.44 0.44 0.0 0 1 109.45 225.85
  L 107.05 223.39
  A 0.78 0.78 0.0 0 0 105.75 223.70
  C 104.48 227.65 99.77 226.50 96.57 226.82
  Q 96.07 226.88 95.76 227.28
  L 91.32 233.11
  A 0.76 0.73 63.4 0 0 91.17 233.59
  Q 91.37 236.80 90.26 239.73
  A 1.15 1.13 -86.7 0 1 89.49 240.43
  L 87.29 241.06
  Q 86.79 241.20 86.41 241.55
  Q 82.74 244.93 81.35 249.68
  A 2.51 2.50 -80.1 0 1 78.80 251.48
  L 75.85 251.31
  Q 75.35 251.28 74.97 251.61
  Q 71.07 255.02 69.75 259.96
  Q 69.64 260.41 69.18 260.47
  L 63.82 261.27"
/>
<path stroke="#eb5f1d" vector-effect="non-scaling-stroke" d="
  M 215.09 54.50
  L 204.82 54.44"
/>
<path stroke="#cc0000" vector-effect="non-scaling-stroke" d="
  M 204.82 54.44
  L 204.87 36.56
  Q 204.87 36.23 205.21 36.19
  Q 207.30 35.92 209.35 35.85
  Q 209.37 35.85 209.37 35.87
  Q 209.37 35.87 209.38 35.88
  Q 209.38 35.91 209.35 35.91
  L 181.72 35.21"
/>
<path stroke="#c75f1d" vector-effect="non-scaling-stroke" d="
  M 204.82 54.44
  L 184.44 54.54"
/>
<path stroke="#735f1d" vector-effect="non-scaling-stroke" d="
  M 163.51 193.23
  L 160.68 180.49"
/>
<path stroke="#735f1d" vector-effect="non-scaling-stroke" d="
  M 156.37 174.35
  L 156.23 181.92"
/>
<path stroke="#735f1d" vector-effect="non-scaling-stroke" d="
  M 159.50 195.09
  Q 159.44 199.34 157.70 203.43
  A 0.90 0.90 0.0 0 1 157.05 203.95
  L 153.60 204.60"
/>
<path stroke="#50310c" vector-effect="non-scaling-stroke" d="
  M 143.03 191.96
  Q 141.91 190.46 141.44 187.98"
/>
<path stroke="#664a17" vector-effect="non-scaling-stroke" d="
  M 141.53 173.45
  Q 141.81 173.21 142.05 172.64
  Q 142.25 172.18 142.73 172.03
  Q 145.79 171.05 147.35 168.93"
/>
<path stroke="#d9a934" vector-effect="non-scaling-stroke" d="
  M 122.57 171.18
  Q 120.80 174.12 118.80 176.54
  Q 109.10 188.25 98.94 200.17"
/>
<path stroke="#d9a934" vector-effect="non-scaling-stroke" d="
  M 132.46 177.26
  Q 128.61 175.62 128.98 174.26"
/>
<path stroke="#7e0000" stroke-opacity="0.949" vector-effect="non-scaling-stroke" d="
  M 464.8675 192.1069
  A 17.06 13.37 88.9 0 0 477.9075 174.7933
  A 17.06 13.37 88.9 0 0 464.2125 157.9931
  A 17.06 13.37 88.9 0 0 451.1725 175.3067
  A 17.06 13.37 88.9 0 0 464.8675 192.1069"
/>
<path stroke="#7e0000" stroke-opacity="0.949" vector-effect="non-scaling-stroke" d="
  M 389.8475 193.1069
  A 17.06 13.37 88.9 0 0 402.8875 175.7933
  A 17.06 13.37 88.9 0 0 389.1925 158.9931
  A 17.06 13.37 88.9 0 0 376.1525 176.3067
  A 17.06 13.37 88.9 0 0 389.8475 193.1069"
/>
<path stroke="#cc0000" vector-effect="non-scaling-stroke" d="
  M 237.54 162.01
  Q 236.92 162.17 236.67 162.88
  A 0.28 0.28 0.0 0 0 237.16 163.15
  Q 238.34 161.69 240.22 161.46
  A 0.24 0.24 0.0 0 0 240.25 160.99
  Q 238.92 160.66 238.10 161.66
  Q 237.88 161.92 237.54 162.01"
/>
<path stroke="#d9a934" vector-effect="non-scaling-stroke" d="
  M 120.55 191.78
  L 122.82 204.34
  Q 123.00 205.30 123.55 204.50
  L 126.03 200.97
  Q 126.33 200.54 126.26 200.02
  L 125.57 194.89"
/>
<path stroke="#c39029" vector-effect="non-scaling-stroke" d="
  M 129.87 186.54
  C 130.79 181.72 123.78 179.39 120.62 183.23
  Q 117.51 187.00 120.55 191.78"
/>
<path stroke="#b67b22" vector-effect="non-scaling-stroke" d="
  M 127.32 184.48
  C 122.58 184.14 121.80 187.64 121.66 191.47
  A 0.62 0.61 85.9 0 1 121.16 192.05
  Q 120.71 192.13 120.55 191.78"
/>
<path stroke="#c39029" vector-effect="non-scaling-stroke" d="
  M 135.85 212.30
  C 139.12 206.72 140.88 199.05 139.56 192.61
  Q 139.51 192.38 139.27 192.38
  Q 139.13 192.38 138.99 192.38
  Q 138.69 192.37 138.72 192.67
  Q 139.60 202.67 134.19 211.01
  Q 133.82 211.57 134.35 211.99
  L 134.95 212.47
  A 0.61 0.60 -55.3 0 0 135.85 212.30"
/>
<path stroke="#c39029" vector-effect="non-scaling-stroke" d="
  M 150.02 245.93
  Q 151.84 240.24 154.32 234.79
  C 155.54 232.10 152.83 228.29 151.61 226.05
  A 2.70 2.70 0.0 0 1 152.41 222.56
  L 156.53 219.62
  A 0.81 0.81 0.0 0 1 157.63 219.77
  L 158.77 221.15
  A 0.57 0.57 0.0 0 0 159.74 221.00
  L 162.99 212.58
  Q 163.08 212.33 162.90 212.15
  L 162.65 211.90
  A 0.30 0.30 0.0 0 0 162.16 211.99
  L 159.38 218.48
  Q 159.12 219.07 158.56 218.75
  Q 157.36 218.07 155.91 218.48
  Q 155.51 218.59 155.19 218.87
  Q 153.45 220.36 151.55 221.65
  C 147.68 224.29 152.13 229.73 153.16 232.67
  A 1.38 1.35 -44.4 0 1 153.14 233.63
  Q 151.01 238.95 148.84 244.26
  Q 148.33 245.50 148.47 246.65
  Q 148.64 248.12 149.85 248.21
  Q 151.27 248.31 153.18 246.42
  Q 154.67 244.95 155.65 246.80
  L 167.50 269.19
  A 2.76 2.76 0.0 0 0 171.63 270.07
  Q 187.33 257.83 203.45 245.16
  Q 206.26 242.96 204.45 239.49
  Q 198.51 228.08 192.39 216.72
  Q 192.14 216.26 192.54 215.93
  C 194.41 214.35 198.79 212.13 196.72 209.24
  A 1.30 1.28 70.6 0 0 195.62 208.70
  L 177.51 209.34
  A 0.58 0.58 0.0 0 0 177.44 210.50
  C 183.13 211.38 189.53 210.51 195.38 210.59
  Q 196.24 210.60 195.66 211.23
  C 194.21 212.82 190.14 214.51 190.95 217.09
  Q 190.95 217.11 192.42 219.91
  Q 198.08 230.68 203.66 241.13
  A 2.01 2.01 0.0 0 1 203.15 243.63
  Q 192.55 252.22 181.20 260.77
  Q 181.11 260.84 176.00 265.02
  Q 173.32 267.22 170.41 268.80
  A 1.21 1.20 -28.3 0 1 168.77 268.31
  Q 162.58 256.57 156.56 245.22
  Q 155.83 243.83 154.85 243.66
  Q 154.17 243.54 153.09 244.48
  Q 151.90 245.53 150.58 246.37
  Q 149.71 246.92 150.02 245.93"
/>
<path stroke="#d9a934" vector-effect="non-scaling-stroke" d="
  M 183.18 229.41
  A 1.59 1.59 0.0 0 0 180.81 228.90
  L 176.84 231.96
  A 1.59 1.59 0.0 0 0 176.42 233.99
  L 179.15 238.90
  A 1.59 1.59 0.0 0 0 181.51 239.38
  L 185.40 236.37
  A 1.59 1.59 0.0 0 0 185.83 234.37
  L 183.18 229.41"
/>
<path stroke="#d9a934" vector-effect="non-scaling-stroke" d="
  M 174.94 235.75
  A 1.63 1.63 0.0 0 0 172.47 235.26
  L 168.70 238.36
  A 1.63 1.63 0.0 0 0 168.29 240.38
  L 170.84 245.22
  A 1.63 1.63 0.0 0 0 173.26 245.76
  L 177.14 242.84
  A 1.63 1.63 0.0 0 0 177.60 240.77
  L 174.94 235.75"
/>
<path stroke="#d9a934" vector-effect="non-scaling-stroke" d="
  M 183.98 248.35
  A 1.69 1.69 0.0 0 0 186.53 248.92
  L 190.32 245.97
  A 1.69 1.69 0.0 0 0 190.78 243.86
  L 188.30 239.04
  A 1.69 1.69 0.0 0 0 185.76 238.47
  L 181.99 241.39
  A 1.69 1.69 0.0 0 0 181.51 243.50
  L 183.98 248.35"
/>
<path stroke="#d9a934" vector-effect="non-scaling-stroke" d="
  M 180.11 245.36
  A 1.75 1.75 0.0 0 0 177.47 244.79
  L 173.77 247.71
  A 1.75 1.75 0.0 0 0 173.30 249.88
  L 175.75 254.68
  A 1.75 1.75 0.0 0 0 178.38 255.27
  L 182.10 252.38
  A 1.75 1.75 0.0 0 0 182.58 250.20
  L 180.11 245.36"
/>
</g>
<path fill="#d40000" d="
  M 161.50 47.39
  Q 160.02 48.74 159.95 50.02
  Q 159.63 56.04 159.98 76.42
  Q 159.98 76.84 160.37 77.00
  L 161.16 77.32
  A 0.12 0.11 43.0 0 1 161.17 77.53
  Q 160.47 77.87 160.68 78.22
  L 148.79 62.90
  A 0.67 0.66 44.8 0 0 147.74 62.90
  Q 109.19 112.89 70.54 162.53
  C 66.87 167.24 63.91 169.66 58.00 168.17
  Q 55.98 167.66 52.34 162.17
  Q 51.76 154.92 56.63 148.62
  Q 99.02 93.87 141.40 39.15
  C 145.61 33.70 150.43 33.67 154.72 38.77
  Q 158.33 43.07 161.50 47.39
  Z"
/>
<path fill="#ef0000" d="
  M 215.09 54.50
  L 204.82 54.44
  L 204.87 36.56
  Q 204.87 36.23 205.21 36.19
  Q 207.30 35.92 209.35 35.85
  Q 209.37 35.85 209.37 35.87
  Q 209.37 35.87 209.38 35.88
  Q 209.38 35.91 209.35 35.91
  L 181.72 35.21
  L 216.89 35.08
  A 4.00 3.98 88.4 0 1 220.89 38.88
  Q 221.17 44.47 220.82 49.75
  Q 220.46 55.41 215.09 54.50
  Z"
/>
<path fill="#a80000" d="
  M 181.72 35.21
  L 209.35 35.91
  Q 209.38 35.91 209.38 35.88
  Q 209.37 35.87 209.37 35.87
  Q 209.37 35.85 209.35 35.85
  Q 207.30 35.92 205.21 36.19
  Q 204.87 36.23 204.87 36.56
  L 204.82 54.44
  L 184.44 54.54
  Q 180.70 54.82 180.07 50.74
  Q 178.70 41.81 181.72 35.21
  Z"
/>
<path fill="#ef0000" d="
  M 161.50 47.39
  L 184.55 77.06
  Q 187.38 81.59 191.15 86.35
  Q 202.60 100.79 214.35 115.83
  L 239.99 148.75
  C 237.87 149.41 235.68 148.90 233.58 149.64
  Q 231.16 150.50 229.40 151.36
  Q 224.82 151.86 221.63 154.75
  A 1.27 1.26 50.1 0 1 219.78 154.58
  L 160.68 78.22
  Q 160.47 77.87 161.17 77.53
  A 0.12 0.11 43.0 0 0 161.16 77.32
  L 160.37 77.00
  Q 159.98 76.84 159.98 76.42
  Q 159.63 56.04 159.95 50.02
  Q 160.02 48.74 161.50 47.39
  Z"
/>
<path fill="#e6be3a" d="
  M 204.82 54.44
  L 215.09 54.50
  Q 214.25 55.23 214.61 55.97
  L 184.70 55.91
  Q 185.02 55.52 184.44 54.54
  L 204.82 54.44
  Z"
/>
<path fill="#000000" d="
  M 184.70 55.91
  L 214.61 55.97
  L 214.35 115.83
  Q 202.60 100.79 191.15 86.35
  Q 187.38 81.59 184.55 77.06
  L 184.70 55.91
  Z"
/>
<path fill="#a80000" d="
  M 160.68 78.22
  L 219.78 154.58
  A 1.27 1.26 50.1 0 0 221.63 154.75
  Q 224.82 151.86 229.40 151.36
  Q 219.58 155.28 216.96 161.38
  Q 217.19 160.33 215.87 159.40
  Q 215.47 159.11 215.16 158.72
  L 212.13 154.99
  L 192.00 129.01
  L 176.84 109.67
  L 176.21 109.13
  Q 174.54 105.61 171.73 103.22
  L 149.84 74.43
  A 1.52 1.52 0.0 0 0 147.44 74.41
  L 129.20 97.65
  Q 122.54 104.88 117.12 113.25
  Q 117.03 113.94 116.17 114.48
  Q 113.83 116.34 112.49 119.23
  L 105.64 128.21
  L 103.23 130.97
  L 85.87 153.42
  L 79.18 162.11
  Q 74.11 168.51 68.90 175.14
  C 64.85 180.29 59.19 179.47 55.60 174.46
  Q 51.95 169.37 52.34 162.17
  Q 55.98 167.66 58.00 168.17
  C 63.91 169.66 66.87 167.24 70.54 162.53
  Q 109.19 112.89 147.74 62.90
  A 0.67 0.66 44.8 0 1 148.79 62.90
  L 160.68 78.22
  Z"
/>
<path fill="#d40000" d="
  M 129.20 97.65
  L 117.12 113.25
  Q 122.54 104.88 129.20 97.65
  Z"
/>
<path fill="#d40000" d="
  M 171.73 103.22
  Q 174.54 105.61 176.21 109.13
  L 171.73 103.22
  Z"
/>
<path fill="#d40000" d="
  M 176.84 109.67
  L 192.00 129.01
  L 186.10 122.88
  L 178.88 112.58
  Q 178.59 112.17 178.13 111.95
  Q 176.57 111.21 176.84 109.67
  Z"
/>
<path fill="#d40000" d="
  M 116.17 114.48
  Q 114.77 117.34 112.49 119.23
  Q 113.83 116.34 116.17 114.48
  Z"
/>
<path fill="#000000" d="
  M 186.10 122.88
  L 192.00 129.01
  Q 198.40 139.23 202.75 144.04
  Q 206.55 148.24 208.16 150.93
  Q 208.18 164.66 208.09 178.20
  Q 208.07 181.02 207.03 183.60
  C 203.71 191.81 201.51 197.89 195.02 203.00
  Q 194.62 203.32 194.13 203.44
  Q 193.23 203.67 193.30 204.60
  Q 193.33 205.19 192.75 205.28
  L 187.51 206.10
  A 0.01 0.00 52.0 0 0 187.51 206.11
  L 190.48 206.72
  L 163.91 207.45
  A 2.20 2.20 0.0 0 1 161.72 204.68
  L 163.01 199.85
  Q 165.20 203.71 171.76 203.81
  C 183.08 203.98 185.91 190.96 185.95 182.00
  Q 186.09 152.60 186.10 122.88
  Z"
/>
<path fill="#000000" fill-opacity="0.894" d="
  M 321.66 193.58
  C 319.80 201.22 312.88 203.44 305.73 202.86
  C 292.73 201.81 285.35 193.25 283.56 180.72
  Q 281.48 166.21 292.68 154.92
  C 300.91 146.62 316.39 145.48 321.59 157.93
  A 0.38 0.38 0.0 0 0 322.33 157.78
  L 322.22 143.35
  A 3.45 3.43 20.7 0 0 321.06 140.80
  L 308.55 129.69
  Q 307.16 128.45 309.02 128.32
  L 342.37 125.97
  Q 343.02 125.92 343.03 126.58
  Q 343.17 155.93 343.08 185.25
  C 343.08 187.26 344.28 187.89 345.59 189.07
  Q 351.56 194.44 357.53 199.56
  A 0.39 0.39 0.0 0 1 357.28 200.25
  L 323.25 200.35
  A 1.00 1.00 0.0 0 1 322.25 199.30
  Q 322.37 196.47 322.13 193.62
  Q 322.00 192.15 321.66 193.58
  Z
  M 306.46 165.21
  Q 303.08 175.54 306.32 185.98
  Q 308.30 192.39 314.95 190.70
  C 323.66 188.50 321.97 172.02 320.03 166.00
  Q 318.98 162.73 316.77 161.47
  C 313.15 159.41 307.87 160.90 306.46 165.21
  Z"
/>
<path fill="#d40000" d="
  M 105.64 128.21
  Q 105.19 130.51 103.23 130.97
  L 105.64 128.21
  Z"
/>
<path fill="#e6be3a" d="
  M 192.00 129.01
  L 212.13 154.99
  Q 212.68 155.75 212.48 156.02
  L 208.16 150.93
  Q 206.55 148.24 202.75 144.04
  Q 198.40 139.23 192.00 129.01
  Z"
/>
<path fill="#000000" fill-opacity="0.894" d="
  M 496.4902 175.7387
  A 32.69 27.11 1.4 0 1 463.1476 202.0419
  A 32.69 27.11 1.4 0 1 431.1298 174.1413
  A 32.69 27.11 1.4 0 1 464.4724 147.8381
  A 32.69 27.11 1.4 0 1 496.4902 175.7387
  Z
  M 464.8675 192.1069
  A 17.06 13.37 88.9 0 0 477.9075 174.7933
  A 17.06 13.37 88.9 0 0 464.2125 157.9931
  A 17.06 13.37 88.9 0 0 451.1725 175.3067
  A 17.06 13.37 88.9 0 0 464.8675 192.1069
  Z"
/>
<path fill="#1a0000" d="
  M 239.99 148.75
  L 241.05 149.18
  Q 244.48 154.27 243.86 160.38
  Q 239.98 159.04 237.03 161.76
  Q 236.66 162.10 236.55 162.59
  Q 235.79 166.04 236.59 169.51
  A 0.71 0.71 0.0 0 1 236.02 170.38
  L 224.68 172.26
  Q 224.17 171.99 223.86 172.31
  L 222.22 170.70
  Q 221.81 170.29 221.67 170.85
  L 221.48 171.65
  Q 216.03 169.48 216.88 162.13
  Q 217.10 161.73 216.96 161.38
  Q 219.58 155.28 229.40 151.36
  Q 231.16 150.50 233.58 149.64
  C 235.68 148.90 237.87 149.41 239.99 148.75
  Z"
/>
<path fill="#000000" fill-opacity="0.894" d="
  M 227.33 175.51
  Q 227.32 175.25 227.32 174.99
  Q 230.07 179.00 234.56 178.77
  C 238.28 178.58 240.62 175.50 242.16 172.39
  Q 242.24 172.24 242.40 171.54
  Q 242.56 170.81 243.43 171.17
  L 250.61 169.18
  Q 250.92 169.09 251.02 168.79
  Q 253.25 161.93 246.68 160.55
  A 1.59 1.44 67.3 0 1 246.02 160.24
  Q 245.06 159.47 243.86 160.38
  Q 244.48 154.27 241.05 149.18
  C 253.45 147.56 272.24 148.70 272.20 165.75
  Q 272.18 175.78 272.24 185.81
  C 272.25 187.06 272.65 189.65 273.15 190.45
  Q 274.58 192.73 275.30 189.98
  Q 276.46 185.59 275.86 180.97
  A 0.74 0.74 0.0 0 1 277.04 180.29
  Q 285.01 186.41 280.44 196.26
  C 277.63 202.30 270.16 203.66 264.24 202.94
  Q 255.20 201.85 253.38 193.14
  A 0.31 0.31 0.0 0 0 252.81 193.06
  C 250.26 197.80 247.28 200.58 241.90 201.95
  C 235.05 203.70 222.12 204.21 217.51 197.05
  C 215.66 194.17 215.92 190.65 215.99 187.10
  C 216.08 181.99 218.70 179.00 223.08 176.35
  Q 225.13 175.10 227.33 175.51
  Z
  M 239.97 191.10
  C 247.59 191.89 252.30 186.19 251.43 178.97
  A 0.57 0.57 0.0 0 0 250.73 178.49
  C 247.57 179.23 238.80 180.47 237.11 183.25
  C 235.58 185.76 236.21 190.71 239.97 191.10
  Z"
/>
<path fill="#000000" fill-opacity="0.894" d="
  M 421.5088 176.7860
  A 32.70 27.09 1.5 0 1 388.1109 203.0107
  A 32.70 27.09 1.5 0 1 356.1312 175.0740
  A 32.70 27.09 1.5 0 1 389.5291 148.8493
  A 32.70 27.09 1.5 0 1 421.5088 176.7860
  Z
  M 389.8475 193.1069
  A 17.06 13.37 88.9 0 0 402.8875 175.7933
  A 17.06 13.37 88.9 0 0 389.1925 158.9931
  A 17.06 13.37 88.9 0 0 376.1525 176.3067
  A 17.06 13.37 88.9 0 0 389.8475 193.1069
  Z"
/>
<path fill="#d40000" d="
  M 85.87 153.42
  Q 83.01 158.42 79.18 162.11
  L 85.87 153.42
  Z"
/>
<path fill="#d40000" d="
  M 212.13 154.99
  L 215.16 158.72
  Q 215.47 159.11 215.87 159.40
  Q 217.19 160.33 216.96 161.38
  Q 217.10 161.73 216.88 162.13
  L 212.48 156.02
  Q 212.68 155.75 212.13 154.99
  Z"
/>
<ellipse fill="#ef0000" cx="0.00" cy="0.00" transform="translate(464.54,175.05) rotate(88.9)" rx="17.06" ry="13.37"/>
<ellipse fill="#ef0000" cx="0.00" cy="0.00" transform="translate(389.52,176.05) rotate(88.9)" rx="17.06" ry="13.37"/>
<path fill="#ef0000" d="
  M 243.86 160.38
  Q 244.52 165.77 243.17 170.28
  Q 239.69 170.97 236.52 172.04
  Q 235.32 172.45 231.85 173.12
  Q 229.39 173.59 227.32 174.99
  Q 227.32 175.25 227.33 175.51
  L 224.68 172.26
  L 236.02 170.38
  A 0.71 0.71 0.0 0 0 236.59 169.51
  Q 235.79 166.04 236.55 162.59
  Q 236.66 162.10 237.03 161.76
  Q 239.98 159.04 243.86 160.38
  Z
  M 237.54 162.01
  Q 236.92 162.17 236.67 162.88
  A 0.28 0.28 0.0 0 0 237.16 163.15
  Q 238.34 161.69 240.22 161.46
  A 0.24 0.24 0.0 0 0 240.25 160.99
  Q 238.92 160.66 238.10 161.66
  Q 237.88 161.92 237.54 162.01
  Z"
/>
<path fill="#000000" d="
  M 156.37 174.35
  L 156.23 181.92
  Q 156.33 188.93 159.50 195.09
  Q 159.44 199.34 157.70 203.43
  A 0.90 0.90 0.0 0 1 157.05 203.95
  L 153.60 204.60
  Q 146.85 200.47 143.03 191.96
  Q 141.91 190.46 141.44 187.98
  Q 141.18 185.44 140.00 183.28
  Q 139.69 182.72 138.11 181.35
  C 134.49 178.22 139.45 175.50 141.55 174.20
  Q 141.83 174.03 141.68 173.74
  L 141.53 173.45
  Q 141.81 173.21 142.05 172.64
  Q 142.25 172.18 142.73 172.03
  Q 145.79 171.05 147.35 168.93
  L 156.87 160.84
  A 0.43 0.43 0.0 0 1 157.56 161.28
  Q 155.78 167.81 156.37 174.35
  Z"
/>
<path fill="#a80000" d="
  M 238.10 161.66
  Q 238.92 160.66 240.25 160.99
  A 0.24 0.24 0.0 0 1 240.22 161.46
  Q 238.34 161.69 237.16 163.15
  A 0.28 0.28 0.0 0 1 236.67 162.88
  Q 236.92 162.17 237.54 162.01
  Q 237.88 161.92 238.10 161.66
  Z"
/>
<path fill="#000000" d="
  M 163.51 193.23
  L 160.68 180.49
  Q 161.31 172.08 161.98 164.26
  C 162.08 163.05 162.77 162.13 163.99 162.20
  A 0.57 0.57 0.0 0 1 164.52 162.85
  C 163.23 171.09 162.41 181.10 164.47 188.92
  C 165.50 192.85 168.68 196.21 171.16 199.34
  Q 171.62 199.92 170.95 199.60
  Q 166.50 197.43 163.51 193.23
  Z"
/>
<path fill="#cb942d" d="
  M 147.35 168.93
  Q 145.79 171.05 142.73 172.03
  Q 142.25 172.18 142.05 172.64
  Q 141.81 173.21 141.53 173.45
  Q 136.47 173.59 132.46 177.26
  Q 128.61 175.62 128.98 174.26
  Q 136.85 166.61 147.35 168.93
  Z"
/>
<path fill="#e6be3a" d="
  M 223.86 172.31
  Q 223.99 172.60 223.59 172.81
  Q 222.43 173.45 221.48 171.65
  L 221.67 170.85
  Q 221.81 170.29 222.22 170.70
  L 223.86 172.31
  Z"
/>
<path fill="#1a0000" d="
  M 243.17 170.28
  Q 242.82 170.25 243.43 171.17
  Q 242.56 170.81 242.40 171.54
  Q 242.24 172.24 242.16 172.39
  C 240.62 175.50 238.28 178.58 234.56 178.77
  Q 230.07 179.00 227.32 174.99
  Q 229.39 173.59 231.85 173.12
  Q 235.32 172.45 236.52 172.04
  Q 239.69 170.97 243.17 170.28
  Z"
/>
<path fill="#cb942d" d="
  M 122.57 171.18
  Q 120.80 174.12 118.80 176.54
  Q 109.10 188.25 98.94 200.17
  C 96.81 185.68 105.58 167.61 122.57 171.18
  Z"
/>
<path fill="#e6be3a" d="
  M 122.57 171.18
  Q 126.08 172.00 128.98 174.26
  Q 128.61 175.62 132.46 177.26
  Q 137.65 181.49 140.76 187.17
  Q 140.65 187.90 141.12 189.51
  Q 144.79 201.94 138.29 213.25
  Q 137.99 213.77 138.57 213.93
  L 140.24 214.39
  Q 145.97 215.59 150.50 212.14
  Q 150.92 211.82 150.89 211.30
  Q 150.58 206.97 153.60 204.60
  L 157.05 203.95
  A 0.90 0.90 0.0 0 0 157.70 203.43
  Q 159.44 199.34 159.50 195.09
  Q 159.84 188.04 156.23 181.92
  L 156.37 174.35
  L 160.68 180.49
  L 163.51 193.23
  L 163.01 199.85
  L 161.72 204.68
  A 2.20 2.20 0.0 0 0 163.91 207.45
  L 190.48 206.72
  L 196.91 207.03
  A 1.31 1.30 -12.7 0 1 198.01 207.72
  Q 200.82 213.04 195.64 215.91
  Q 194.43 216.59 195.08 217.81
  Q 199.90 226.88 205.02 236.68
  C 207.28 241.01 208.24 244.35 204.05 247.55
  Q 195.57 254.03 175.20 269.93
  C 169.05 274.73 167.51 273.09 164.33 267.09
  Q 159.47 257.90 154.60 248.66
  Q 154.36 248.20 153.91 248.46
  C 151.95 249.61 149.81 251.87 147.66 249.32
  C 145.01 246.17 149.92 236.83 151.37 233.35
  Q 151.57 232.87 151.31 232.42
  C 147.74 226.42 146.12 221.85 153.24 217.68
  A 0.84 0.84 0.0 0 0 153.57 217.32
  L 153.82 216.82
  A 0.50 0.50 0.0 0 0 153.08 216.19
  Q 145.82 221.23 136.94 218.76
  Q 136.05 218.14 135.01 217.97
  Q 134.52 217.90 134.14 218.21
  Q 130.62 221.11 126.31 222.58
  A 0.94 0.93 -3.0 0 0 125.71 223.24
  L 124.06 229.91
  A 1.16 1.16 0.0 0 1 122.57 230.73
  L 120.04 229.88
  A 0.56 0.56 0.0 0 0 119.33 230.27
  L 118.49 233.56
  A 1.12 1.10 83.2 0 1 117.95 234.26
  C 115.28 235.74 112.09 236.77 110.70 239.60
  Q 107.98 245.10 109.86 251.23
  A 2.32 2.30 59.6 0 1 109.27 253.54
  Q 103.99 258.70 104.88 266.29
  A 1.37 1.35 61.9 0 1 104.57 267.33
  Q 102.86 269.32 100.25 269.99
  A 1.11 1.10 -83.1 0 0 99.54 270.55
  Q 96.88 275.57 96.73 281.25
  A 0.87 0.85 -16.7 0 1 96.35 281.94
  L 92.06 284.78
  Q 88.99 281.94 88.11 277.70
  Q 87.63 275.42 88.63 272.41
  Q 95.91 250.66 103.35 228.84
  Q 105.78 228.52 106.89 225.53
  A 0.42 0.42 0.0 0 1 107.59 225.38
  L 110.09 227.95
  A 0.72 0.71 40.1 0 0 111.19 227.86
  L 115.12 222.12
  A 0.97 0.96 21.9 0 1 116.09 221.71
  Q 125.37 223.25 131.98 216.94
  Q 132.37 216.58 131.96 216.24
  L 131.02 215.49
  Q 130.54 215.10 130.06 215.49
  Q 123.59 220.81 115.16 219.40
  A 0.92 0.91 22.0 0 0 114.25 219.78
  L 110.12 225.79
  A 0.44 0.44 0.0 0 1 109.45 225.85
  L 107.05 223.39
  A 0.78 0.78 0.0 0 0 105.75 223.70
  C 104.48 227.65 99.77 226.50 96.57 226.82
  Q 96.07 226.88 95.76 227.28
  L 91.32 233.11
  A 0.76 0.73 63.4 0 0 91.17 233.59
  Q 91.37 236.80 90.26 239.73
  A 1.15 1.13 -86.7 0 1 89.49 240.43
  L 87.29 241.06
  Q 86.79 241.20 86.41 241.55
  Q 82.74 244.93 81.35 249.68
  A 2.51 2.50 -80.1 0 1 78.80 251.48
  L 75.85 251.31
  Q 75.35 251.28 74.97 251.61
  Q 71.07 255.02 69.75 259.96
  Q 69.64 260.41 69.18 260.47
  L 63.82 261.27
  Q 61.90 257.19 62.40 252.54
  Q 62.62 250.45 64.24 248.46
  Q 80.36 228.57 96.57 208.71
  Q 96.94 208.26 96.73 207.70
  L 95.74 205.13
  Q 95.56 204.65 95.78 204.18
  Q 97.10 201.41 98.94 200.17
  Q 109.10 188.25 118.80 176.54
  Q 120.80 174.12 122.57 171.18
  Z
  M 120.55 191.78
  L 122.82 204.34
  Q 123.00 205.30 123.55 204.50
  L 126.03 200.97
  Q 126.33 200.54 126.26 200.02
  L 125.57 194.89
  Q 131.54 192.45 129.87 186.54
  C 130.79 181.72 123.78 179.39 120.62 183.23
  Q 117.51 187.00 120.55 191.78
  Z
  M 135.85 212.30
  C 139.12 206.72 140.88 199.05 139.56 192.61
  Q 139.51 192.38 139.27 192.38
  Q 139.13 192.38 138.99 192.38
  Q 138.69 192.37 138.72 192.67
  Q 139.60 202.67 134.19 211.01
  Q 133.82 211.57 134.35 211.99
  L 134.95 212.47
  A 0.61 0.60 -55.3 0 0 135.85 212.30
  Z
  M 150.02 245.93
  Q 151.84 240.24 154.32 234.79
  C 155.54 232.10 152.83 228.29 151.61 226.05
  A 2.70 2.70 0.0 0 1 152.41 222.56
  L 156.53 219.62
  A 0.81 0.81 0.0 0 1 157.63 219.77
  L 158.77 221.15
  A 0.57 0.57 0.0 0 0 159.74 221.00
  L 162.99 212.58
  Q 163.08 212.33 162.90 212.15
  L 162.65 211.90
  A 0.30 0.30 0.0 0 0 162.16 211.99
  L 159.38 218.48
  Q 159.12 219.07 158.56 218.75
  Q 157.36 218.07 155.91 218.48
  Q 155.51 218.59 155.19 218.87
  Q 153.45 220.36 151.55 221.65
  C 147.68 224.29 152.13 229.73 153.16 232.67
  A 1.38 1.35 -44.4 0 1 153.14 233.63
  Q 151.01 238.95 148.84 244.26
  Q 148.33 245.50 148.47 246.65
  Q 148.64 248.12 149.85 248.21
  Q 151.27 248.31 153.18 246.42
  Q 154.67 244.95 155.65 246.80
  L 167.50 269.19
  A 2.76 2.76 0.0 0 0 171.63 270.07
  Q 187.33 257.83 203.45 245.16
  Q 206.26 242.96 204.45 239.49
  Q 198.51 228.08 192.39 216.72
  Q 192.14 216.26 192.54 215.93
  C 194.41 214.35 198.79 212.13 196.72 209.24
  A 1.30 1.28 70.6 0 0 195.62 208.70
  L 177.51 209.34
  A 0.58 0.58 0.0 0 0 177.44 210.50
  C 183.13 211.38 189.53 210.51 195.38 210.59
  Q 196.24 210.60 195.66 211.23
  C 194.21 212.82 190.14 214.51 190.95 217.09
  Q 190.95 217.11 192.42 219.91
  Q 198.08 230.68 203.66 241.13
  A 2.01 2.01 0.0 0 1 203.15 243.63
  Q 192.55 252.22 181.20 260.77
  Q 181.11 260.84 176.00 265.02
  Q 173.32 267.22 170.41 268.80
  A 1.21 1.20 -28.3 0 1 168.77 268.31
  Q 162.58 256.57 156.56 245.22
  Q 155.83 243.83 154.85 243.66
  Q 154.17 243.54 153.09 244.48
  Q 151.90 245.53 150.58 246.37
  Q 149.71 246.92 150.02 245.93
  Z
  M 158.58 215.42
  L 160.70 210.29
  A 0.78 0.78 0.0 0 0 159.36 209.52
  L 156.41 213.38
  Q 156.05 213.85 156.41 214.32
  L 157.34 215.58
  Q 158.10 216.60 158.58 215.42
  Z
  M 168.08 216.82
  Q 168.60 221.66 164.39 223.80
  Q 163.89 224.06 164.20 224.53
  C 168.31 230.84 176.11 220.47 169.00 216.23
  Q 167.95 215.61 168.08 216.82
  Z
  M 163.32 219.29
  A 0.38 0.37 -87.6 0 0 163.80 219.82
  Q 165.16 219.20 164.96 217.66
  A 0.37 0.36 55.6 0 0 164.28 217.53
  L 163.32 219.29
  Z
  M 183.18 229.41
  A 1.59 1.59 0.0 0 0 180.81 228.90
  L 176.84 231.96
  A 1.59 1.59 0.0 0 0 176.42 233.99
  L 179.15 238.90
  A 1.59 1.59 0.0 0 0 181.51 239.38
  L 185.40 236.37
  A 1.59 1.59 0.0 0 0 185.83 234.37
  L 183.18 229.41
  Z
  M 174.94 235.75
  A 1.63 1.63 0.0 0 0 172.47 235.26
  L 168.70 238.36
  A 1.63 1.63 0.0 0 0 168.29 240.38
  L 170.84 245.22
  A 1.63 1.63 0.0 0 0 173.26 245.76
  L 177.14 242.84
  A 1.63 1.63 0.0 0 0 177.60 240.77
  L 174.94 235.75
  Z
  M 183.98 248.35
  A 1.69 1.69 0.0 0 0 186.53 248.92
  L 190.32 245.97
  A 1.69 1.69 0.0 0 0 190.78 243.86
  L 188.30 239.04
  A 1.69 1.69 0.0 0 0 185.76 238.47
  L 181.99 241.39
  A 1.69 1.69 0.0 0 0 181.51 243.50
  L 183.98 248.35
  Z
  M 180.11 245.36
  A 1.75 1.75 0.0 0 0 177.47 244.79
  L 173.77 247.71
  A 1.75 1.75 0.0 0 0 173.30 249.88
  L 175.75 254.68
  A 1.75 1.75 0.0 0 0 178.38 255.27
  L 182.10 252.38
  A 1.75 1.75 0.0 0 0 182.58 250.20
  L 180.11 245.36
  Z"
/>
<path fill="#a06217" d="
  M 129.87 186.54
  L 127.32 184.48
  C 122.58 184.14 121.80 187.64 121.66 191.47
  A 0.62 0.61 85.9 0 1 121.16 192.05
  Q 120.71 192.13 120.55 191.78
  Q 117.51 187.00 120.62 183.23
  C 123.78 179.39 130.79 181.72 129.87 186.54
  Z"
/>
<path fill="#cb942d" d="
  M 127.32 184.48
  Q 125.19 189.73 125.57 194.89
  L 126.26 200.02
  Q 126.33 200.54 126.03 200.97
  L 123.55 204.50
  Q 123.00 205.30 122.82 204.34
  L 120.55 191.78
  Q 120.71 192.13 121.16 192.05
  A 0.62 0.61 85.9 0 0 121.66 191.47
  C 121.80 187.64 122.58 184.14 127.32 184.48
  Z"
/>
<path fill="#a06217" d="
  M 140.76 187.17
  Q 141.09 187.23 141.44 187.98
  Q 141.91 190.46 143.03 191.96
  Q 145.65 204.30 140.24 214.39
  L 138.57 213.93
  Q 137.99 213.77 138.29 213.25
  Q 144.79 201.94 141.12 189.51
  Q 140.65 187.90 140.76 187.17
  Z"
/>
<path fill="#a06217" d="
  M 139.56 192.61
  C 140.88 199.05 139.12 206.72 135.85 212.30
  A 0.61 0.60 -55.3 0 1 134.95 212.47
  L 134.35 211.99
  Q 133.82 211.57 134.19 211.01
  Q 139.60 202.67 138.72 192.67
  Q 138.69 192.37 138.99 192.38
  Q 139.13 192.38 139.27 192.38
  Q 139.51 192.38 139.56 192.61
  Z"
/>
<path fill="#a06217" d="
  M 150.58 246.37
  Q 151.90 245.53 153.09 244.48
  Q 154.17 243.54 154.85 243.66
  Q 155.83 243.83 156.56 245.22
  Q 162.58 256.57 168.77 268.31
  A 1.21 1.20 -28.3 0 0 170.41 268.80
  Q 173.32 267.22 176.00 265.02
  Q 181.11 260.84 181.20 260.77
  Q 192.55 252.22 203.15 243.63
  A 2.01 2.01 0.0 0 0 203.66 241.13
  Q 198.08 230.68 192.42 219.91
  Q 190.95 217.11 190.95 217.09
  C 190.14 214.51 194.21 212.82 195.66 211.23
  Q 196.24 210.60 195.38 210.59
  C 189.53 210.51 183.13 211.38 177.44 210.50
  A 0.58 0.58 0.0 0 1 177.51 209.34
  L 195.62 208.70
  A 1.30 1.28 70.6 0 1 196.72 209.24
  C 198.79 212.13 194.41 214.35 192.54 215.93
  Q 192.14 216.26 192.39 216.72
  Q 198.51 228.08 204.45 239.49
  Q 206.26 242.96 203.45 245.16
  Q 187.33 257.83 171.63 270.07
  A 2.76 2.76 0.0 0 1 167.50 269.19
  L 155.65 246.80
  Q 154.67 244.95 153.18 246.42
  Q 151.27 248.31 149.85 248.21
  Q 148.64 248.12 148.47 246.65
  Q 148.33 245.50 148.84 244.26
  Q 151.01 238.95 153.14 233.63
  A 1.38 1.35 -44.4 0 0 153.16 232.67
  C 152.13 229.73 147.68 224.29 151.55 221.65
  Q 153.45 220.36 155.19 218.87
  Q 155.51 218.59 155.91 218.48
  Q 157.36 218.07 158.56 218.75
  Q 159.12 219.07 159.38 218.48
  L 162.16 211.99
  A 0.30 0.30 0.0 0 1 162.65 211.90
  L 162.90 212.15
  Q 163.08 212.33 162.99 212.58
  L 159.74 221.00
  A 0.57 0.57 0.0 0 1 158.77 221.15
  L 157.63 219.77
  A 0.81 0.81 0.0 0 0 156.53 219.62
  L 152.41 222.56
  A 2.70 2.70 0.0 0 0 151.61 226.05
  C 152.83 228.29 155.54 232.10 154.32 234.79
  Q 151.84 240.24 150.02 245.93
  Q 149.71 246.92 150.58 246.37
  Z"
/>
<path fill="#a06217" d="
  M 103.35 228.84
  L 98.13 229.01
  Q 97.65 229.02 97.26 229.31
  Q 92.24 233.10 91.70 239.18
  C 91.48 241.70 90.94 243.18 88.27 243.22
  Q 87.76 243.23 87.38 243.58
  Q 83.42 247.27 81.97 252.43
  A 1.76 1.76 0.0 0 1 80.24 253.71
  L 76.92 253.63
  Q 76.38 253.62 75.97 253.97
  Q 72.13 257.19 70.77 262.00
  Q 70.62 262.50 70.12 262.67
  Q 64.71 264.46 63.82 261.27
  L 69.18 260.47
  Q 69.64 260.41 69.75 259.96
  Q 71.07 255.02 74.97 251.61
  Q 75.35 251.28 75.85 251.31
  L 78.80 251.48
  A 2.51 2.50 -80.1 0 0 81.35 249.68
  Q 82.74 244.93 86.41 241.55
  Q 86.79 241.20 87.29 241.06
  L 89.49 240.43
  A 1.15 1.13 -86.7 0 0 90.26 239.73
  Q 91.37 236.80 91.17 233.59
  A 0.76 0.73 63.4 0 1 91.32 233.11
  L 95.76 227.28
  Q 96.07 226.88 96.57 226.82
  C 99.77 226.50 104.48 227.65 105.75 223.70
  A 0.78 0.78 0.0 0 1 107.05 223.39
  L 109.45 225.85
  A 0.44 0.44 0.0 0 0 110.12 225.79
  L 114.25 219.78
  A 0.92 0.91 22.0 0 1 115.16 219.40
  Q 123.59 220.81 130.06 215.49
  Q 130.54 215.10 131.02 215.49
  L 131.96 216.24
  Q 132.37 216.58 131.98 216.94
  Q 125.37 223.25 116.09 221.71
  A 0.97 0.96 21.9 0 0 115.12 222.12
  L 111.19 227.86
  A 0.72 0.71 40.1 0 1 110.09 227.95
  L 107.59 225.38
  A 0.42 0.42 0.0 0 0 106.89 225.53
  Q 105.78 228.52 103.35 228.84
  Z"
/>
<path fill="#a06217" d="
  M 136.94 218.76
  Q 133.23 222.57 127.99 224.16
  A 0.96 0.96 0.0 0 0 127.34 224.85
  L 125.35 232.52
  A 0.36 0.36 0.0 0 1 124.88 232.77
  L 121.51 231.57
  A 0.56 0.56 0.0 0 0 120.78 231.99
  L 120.18 234.95
  Q 120.07 235.49 119.62 235.81
  Q 116.88 237.81 114.31 238.82
  Q 113.12 239.29 112.63 240.18
  Q 109.30 246.24 111.33 252.85
  A 1.20 1.16 -51.2 0 1 111.37 253.28
  Q 111.21 255.71 109.12 256.77
  Q 108.65 257.01 108.41 257.48
  Q 105.83 262.69 106.15 268.47
  A 1.19 1.17 65.7 0 1 105.82 269.36
  Q 104.21 271.00 101.95 271.61
  A 1.23 1.19 6.9 0 0 101.20 272.18
  Q 98.49 276.96 98.73 282.47
  Q 98.75 282.87 98.45 283.14
  Q 93.93 287.36 92.06 284.78
  L 96.35 281.94
  A 0.87 0.85 -16.7 0 0 96.73 281.25
  Q 96.88 275.57 99.54 270.55
  A 1.11 1.10 -83.1 0 1 100.25 269.99
  Q 102.86 269.32 104.57 267.33
  A 1.37 1.35 61.9 0 0 104.88 266.29
  Q 103.99 258.70 109.27 253.54
  A 2.32 2.30 59.6 0 0 109.86 251.23
  Q 107.98 245.10 110.70 239.60
  C 112.09 236.77 115.28 235.74 117.95 234.26
  A 1.12 1.10 83.2 0 0 118.49 233.56
  L 119.33 230.27
  A 0.56 0.56 0.0 0 1 120.04 229.88
  L 122.57 230.73
  A 1.16 1.16 0.0 0 0 124.06 229.91
  L 125.71 223.24
  A 0.94 0.93 -3.0 0 1 126.31 222.58
  Q 130.62 221.11 134.14 218.21
  Q 134.52 217.90 135.01 217.97
  Q 136.05 218.14 136.94 218.76
  Z"
/>
<path fill="#cb942d" d="
  M 183.18 229.41
  L 185.83 234.37
  A 1.59 1.59 0.0 0 1 185.40 236.37
  L 181.51 239.38
  A 1.59 1.59 0.0 0 1 179.15 238.90
  L 176.42 233.99
  A 1.59 1.59 0.0 0 1 176.84 231.96
  L 180.81 228.90
  A 1.59 1.59 0.0 0 1 183.18 229.41
  Z"
/>
<path fill="#cb942d" d="
  M 174.94 235.75
  L 177.60 240.77
  A 1.63 1.63 0.0 0 1 177.14 242.84
  L 173.26 245.76
  A 1.63 1.63 0.0 0 1 170.84 245.22
  L 168.29 240.38
  A 1.63 1.63 0.0 0 1 168.70 238.36
  L 172.47 235.26
  A 1.63 1.63 0.0 0 1 174.94 235.75
  Z"
/>
<path fill="#cb942d" d="
  M 183.98 248.35
  L 181.51 243.50
  A 1.69 1.69 0.0 0 1 181.99 241.39
  L 185.76 238.47
  A 1.69 1.69 0.0 0 1 188.30 239.04
  L 190.78 243.86
  A 1.69 1.69 0.0 0 1 190.32 245.97
  L 186.53 248.92
  A 1.69 1.69 0.0 0 1 183.98 248.35
  Z"
/>
<path fill="#cb942d" d="
  M 180.11 245.36
  L 182.58 250.20
  A 1.75 1.75 0.0 0 1 182.10 252.38
  L 178.38 255.27
  A 1.75 1.75 0.0 0 1 175.75 254.68
  L 173.30 249.88
  A 1.75 1.75 0.0 0 1 173.77 247.71
  L 177.47 244.79
  A 1.75 1.75 0.0 0 1 180.11 245.36
  Z"
/>
</svg>
